solid ASCII
  facet normal 0.000000e+00 0.000000e+00 1.000000e+00
    outer loop
      vertex   7.000000e+01 2.500000e+01 3.000000e+01
      vertex   -7.000000e+01 2.500000e+01 3.000000e+01
      vertex   7.000000e+01 -2.500000e+01 3.000000e+01
    endloop
  endfacet
  facet normal 0.000000e+00 0.000000e+00 1.000000e+00
    outer loop
      vertex   7.000000e+01 -2.500000e+01 3.000000e+01
      vertex   -7.000000e+01 2.500000e+01 3.000000e+01
      vertex   -7.000000e+01 -2.500000e+01 3.000000e+01
    endloop
  endfacet
  facet normal 1.000000e+00 0.000000e+00 -0.000000e+00
    outer loop
      vertex   -7.000000e+01 2.500000e+01 3.000000e+01
      vertex   -7.000000e+01 2.500000e+01 1.700000e+02
      vertex   -7.000000e+01 -2.500000e+01 3.000000e+01
    endloop
  endfacet
  facet normal 1.000000e+00 0.000000e+00 0.000000e+00
    outer loop
      vertex   -7.000000e+01 -2.500000e+01 3.000000e+01
      vertex   -7.000000e+01 2.500000e+01 1.700000e+02
      vertex   -7.000000e+01 -2.500000e+01 1.700000e+02
    endloop
  endfacet
  facet normal 0.000000e+00 0.000000e+00 -1.000000e+00
    outer loop
      vertex   -7.000000e+01 2.500000e+01 1.700000e+02
      vertex   7.000000e+01 2.500000e+01 1.700000e+02
      vertex   -7.000000e+01 -2.500000e+01 1.700000e+02
    endloop
  endfacet
  facet normal 0.000000e+00 0.000000e+00 -1.000000e+00
    outer loop
      vertex   -7.000000e+01 -2.500000e+01 1.700000e+02
      vertex   7.000000e+01 2.500000e+01 1.700000e+02
      vertex   7.000000e+01 -2.500000e+01 1.700000e+02
    endloop
  endfacet
  facet normal -1.000000e+00 -0.000000e+00 -0.000000e+00
    outer loop
      vertex   7.000000e+01 2.500000e+01 1.700000e+02
      vertex   7.000000e+01 2.500000e+01 3.000000e+01
      vertex   7.000000e+01 -2.500000e+01 1.700000e+02
    endloop
  endfacet
  facet normal -1.000000e+00 0.000000e+00 0.000000e+00
    outer loop
      vertex   7.000000e+01 -2.500000e+01 1.700000e+02
      vertex   7.000000e+01 2.500000e+01 3.000000e+01
      vertex   7.000000e+01 -2.500000e+01 3.000000e+01
    endloop
  endfacet
  facet normal 0.000000e+00 -1.000000e+00 0.000000e+00
    outer loop
      vertex   7.000000e+01 -2.500000e+01 1.700000e+02
      vertex   7.000000e+01 -2.500000e+01 3.000000e+01
      vertex   1.000000e+02 -2.500000e+01 0.000000e+00
    endloop
  endfacet
  facet normal 0.000000e+00 -1.000000e+00 0.000000e+00
    outer loop
      vertex   1.000000e+02 -2.500000e+01 0.000000e+00
      vertex   7.000000e+01 -2.500000e+01 3.000000e+01
      vertex   -7.000000e+01 -2.500000e+01 3.000000e+01
    endloop
  endfacet
  facet normal 0.000000e+00 -1.000000e+00 0.000000e+00
    outer loop
      vertex   1.000000e+02 -2.500000e+01 0.000000e+00
      vertex   -7.000000e+01 -2.500000e+01 3.000000e+01
      vertex   -1.000000e+02 -2.500000e+01 0.000000e+00
    endloop
  endfacet
  facet normal 0.000000e+00 -1.000000e+00 0.000000e+00
    outer loop
      vertex   -1.000000e+02 -2.500000e+01 0.000000e+00
      vertex   -7.000000e+01 -2.500000e+01 3.000000e+01
      vertex   -7.000000e+01 -2.500000e+01 1.700000e+02
    endloop
  endfacet
  facet normal 0.000000e+00 -1.000000e+00 0.000000e+00
    outer loop
      vertex   -1.000000e+02 -2.500000e+01 0.000000e+00
      vertex   -7.000000e+01 -2.500000e+01 1.700000e+02
      vertex   -1.000000e+02 -2.500000e+01 2.000000e+02
    endloop
  endfacet
  facet normal 0.000000e+00 -1.000000e+00 0.000000e+00
    outer loop
      vertex   -1.000000e+02 -2.500000e+01 2.000000e+02
      vertex   -7.000000e+01 -2.500000e+01 1.700000e+02
      vertex   7.000000e+01 -2.500000e+01 1.700000e+02
    endloop
  endfacet
  facet normal 0.000000e+00 -1.000000e+00 0.000000e+00
    outer loop
      vertex   -1.000000e+02 -2.500000e+01 2.000000e+02
      vertex   7.000000e+01 -2.500000e+01 1.700000e+02
      vertex   1.000000e+02 -2.500000e+01 2.000000e+02
    endloop
  endfacet
  facet normal 0.000000e+00 -1.000000e+00 -0.000000e+00
    outer loop
      vertex   1.000000e+02 -2.500000e+01 2.000000e+02
      vertex   7.000000e+01 -2.500000e+01 1.700000e+02
      vertex   1.000000e+02 -2.500000e+01 0.000000e+00
    endloop
  endfacet
  facet normal -1.000000e+00 0.000000e+00 0.000000e+00
    outer loop
      vertex   -1.000000e+02 2.500000e+01 0.000000e+00
      vertex   -1.000000e+02 -2.500000e+01 0.000000e+00
      vertex   -1.000000e+02 2.500000e+01 2.000000e+02
    endloop
  endfacet
  facet normal -1.000000e+00 -0.000000e+00 0.000000e+00
    outer loop
      vertex   -1.000000e+02 2.500000e+01 2.000000e+02
      vertex   -1.000000e+02 -2.500000e+01 0.000000e+00
      vertex   -1.000000e+02 -2.500000e+01 2.000000e+02
    endloop
  endfacet
  facet normal 0.000000e+00 1.000000e+00 0.000000e+00
    outer loop
      vertex   -7.000000e+01 2.500000e+01 1.700000e+02
      vertex   -7.000000e+01 2.500000e+01 3.000000e+01
      vertex   -1.000000e+02 2.500000e+01 0.000000e+00
    endloop
  endfacet
  facet normal 0.000000e+00 1.000000e+00 0.000000e+00
    outer loop
      vertex   -1.000000e+02 2.500000e+01 0.000000e+00
      vertex   -7.000000e+01 2.500000e+01 3.000000e+01
      vertex   7.000000e+01 2.500000e+01 3.000000e+01
    endloop
  endfacet
  facet normal 0.000000e+00 1.000000e+00 0.000000e+00
    outer loop
      vertex   -1.000000e+02 2.500000e+01 0.000000e+00
      vertex   7.000000e+01 2.500000e+01 3.000000e+01
      vertex   1.000000e+02 2.500000e+01 0.000000e+00
    endloop
  endfacet
  facet normal 0.000000e+00 1.000000e+00 0.000000e+00
    outer loop
      vertex   1.000000e+02 2.500000e+01 0.000000e+00
      vertex   7.000000e+01 2.500000e+01 3.000000e+01
      vertex   7.000000e+01 2.500000e+01 1.700000e+02
    endloop
  endfacet
  facet normal 0.000000e+00 1.000000e+00 -0.000000e+00
    outer loop
      vertex   1.000000e+02 2.500000e+01 0.000000e+00
      vertex   7.000000e+01 2.500000e+01 1.700000e+02
      vertex   1.000000e+02 2.500000e+01 2.000000e+02
    endloop
  endfacet
  facet normal 0.000000e+00 1.000000e+00 0.000000e+00
    outer loop
      vertex   1.000000e+02 2.500000e+01 2.000000e+02
      vertex   7.000000e+01 2.500000e+01 1.700000e+02
      vertex   -7.000000e+01 2.500000e+01 1.700000e+02
    endloop
  endfacet
  facet normal 0.000000e+00 1.000000e+00 0.000000e+00
    outer loop
      vertex   1.000000e+02 2.500000e+01 2.000000e+02
      vertex   -7.000000e+01 2.500000e+01 1.700000e+02
      vertex   -1.000000e+02 2.500000e+01 2.000000e+02
    endloop
  endfacet
  facet normal 0.000000e+00 1.000000e+00 0.000000e+00
    outer loop
      vertex   -1.000000e+02 2.500000e+01 2.000000e+02
      vertex   -7.000000e+01 2.500000e+01 1.700000e+02
      vertex   -1.000000e+02 2.500000e+01 0.000000e+00
    endloop
  endfacet
  facet normal 1.000000e+00 0.000000e+00 0.000000e+00
    outer loop
      vertex   1.000000e+02 -2.500000e+01 0.000000e+00
      vertex   1.000000e+02 2.500000e+01 0.000000e+00
      vertex   1.000000e+02 -2.500000e+01 2.000000e+02
    endloop
  endfacet
  facet normal 1.000000e+00 -0.000000e+00 0.000000e+00
    outer loop
      vertex   1.000000e+02 -2.500000e+01 2.000000e+02
      vertex   1.000000e+02 2.500000e+01 0.000000e+00
      vertex   1.000000e+02 2.500000e+01 2.000000e+02
    endloop
  endfacet
  facet normal 0.000000e+00 0.000000e+00 1.000000e+00
    outer loop
      vertex   1.000000e+02 2.500000e+01 2.000000e+02
      vertex   -1.000000e+02 2.500000e+01 2.000000e+02
      vertex   1.000000e+02 -2.500000e+01 2.000000e+02
    endloop
  endfacet
  facet normal 0.000000e+00 0.000000e+00 1.000000e+00
    outer loop
      vertex   1.000000e+02 -2.500000e+01 2.000000e+02
      vertex   -1.000000e+02 2.500000e+01 2.000000e+02
      vertex   -1.000000e+02 -2.500000e+01 2.000000e+02
    endloop
  endfacet
  facet normal 0.000000e+00 0.000000e+00 -1.000000e+00
    outer loop
      vertex   1.000000e+02 -2.500000e+01 0.000000e+00
      vertex   -1.000000e+02 -2.500000e+01 0.000000e+00
      vertex   1.000000e+02 2.500000e+01 0.000000e+00
    endloop
  endfacet
  facet normal -0.000000e+00 0.000000e+00 -1.000000e+00
    outer loop
      vertex   1.000000e+02 2.500000e+01 0.000000e+00
      vertex   -1.000000e+02 -2.500000e+01 0.000000e+00
      vertex   -1.000000e+02 2.500000e+01 0.000000e+00
    endloop
  endfacet
endsolid
